<svg width="78" height="36" viewBox="0 0 78 36" fill="none" xmlns="http://www.w3.org/2000/svg">
<path d="M14.7862 26.1326L11.2142 22.6719C11.0812 22.5431 10.8663 22.5431 10.7334 22.6719C10.6005 22.8007 10.6005 23.0089 10.7334 23.1376L14.2062 26.5022V30.9511C14.2062 31.2274 14.1249 31.4511 13.9705 31.5976C13.5843 31.9656 12.6534 31.8213 12.6534 30.9511V27.1445C12.6534 27.1438 12.653 27.1432 12.653 27.1425C12.6527 27.0994 12.6445 27.0565 12.6269 27.0164C12.6092 26.9762 12.5833 26.9406 12.5517 26.9103C12.5514 26.9096 12.5507 26.9087 12.5507 26.9087L8.97831 23.5345C8.84435 23.4081 8.62879 23.4097 8.49755 23.5405C8.36631 23.6709 8.36903 23.8791 8.50367 24.0062L11.9734 27.2835V30.9514C11.9734 31.9244 12.7397 32.4494 13.4609 32.4494C13.8383 32.4494 14.1888 32.314 14.4469 32.068C14.6475 31.8776 14.8862 31.5288 14.8862 30.9514V26.3658C14.8862 26.323 14.8773 26.2802 14.86 26.24C14.8426 26.1995 14.8178 26.163 14.7862 26.1326Z" fill="#00764B"/>
<path d="M7.08888 23.4564C6.9097 23.4014 6.71863 23.4959 6.66117 23.6692L5.25391 27.9013L2.14529 31.3179L2.14495 31.3182C1.66793 31.8439 1.18275 31.8611 0.914146 31.6437C0.632966 31.4171 0.540146 30.9158 0.998466 30.3496L3.85311 27.008C3.85515 27.0054 3.85583 27.0021 3.85787 26.9998C3.88303 26.9688 3.90377 26.9343 3.91635 26.8944L3.91669 26.8931V26.8928L4.98768 23.4916C5.04243 23.3177 4.94111 23.1336 4.76159 23.0806C4.58105 23.0262 4.39201 23.1254 4.33693 23.2993L3.28531 26.6391L0.470786 29.9339C0.469766 29.9352 0.469767 29.9368 0.468747 29.9382C0.467727 29.9392 0.466706 29.9395 0.465686 29.9405C-0.243213 30.8127 -0.0643736 31.7125 0.478946 32.1502C0.695526 32.3248 0.983846 32.4338 1.30413 32.4338C1.73049 32.4338 2.21261 32.2408 2.65563 31.7534L5.81083 28.2857C5.81355 28.2827 5.81423 28.2788 5.81695 28.2758C5.83973 28.2488 5.85843 28.2182 5.87169 28.1839C5.87339 28.1793 5.87713 28.1757 5.87883 28.1707C5.87883 28.1701 5.87951 28.1697 5.87951 28.1691L7.30852 23.8717C7.36564 23.6982 7.26772 23.5124 7.08888 23.4564Z" fill="#00764B"/>
<path d="M16.4263 20.138C16.4246 20.1209 16.4284 20.1041 16.424 20.087L16.4236 20.0856V20.085L16.4233 20.0843L14.4594 12.3578C14.4591 12.3572 14.4584 12.3565 14.4584 12.3555C14.4581 12.3545 14.4584 12.3536 14.4581 12.3526C14.4526 12.3331 14.4401 12.3183 14.4316 12.3005C14.4214 12.2791 14.4135 12.2557 14.3993 12.2373C14.3897 12.2254 14.3765 12.2182 14.3653 12.2076C14.3449 12.1879 14.3255 12.1671 14.301 12.1533C14.2894 12.1467 14.2755 12.1451 14.2633 12.1398C14.2357 12.1279 14.2089 12.1158 14.1789 12.1115C14.1592 12.1085 14.1392 12.1134 14.1191 12.1138C14.0953 12.1144 14.0718 12.1111 14.048 12.1167C14.047 12.1171 14.0463 12.1177 14.045 12.1181C14.0443 12.1181 14.0436 12.1181 14.0426 12.1181L11.2689 12.8272L10.5974 6.92118C10.597 6.91953 10.596 6.91788 10.5957 6.91591C10.5953 6.91393 10.5964 6.91229 10.596 6.90998C10.5926 6.88758 10.5811 6.86881 10.5736 6.84806C10.5664 6.82928 10.5634 6.80919 10.5532 6.79239C10.5406 6.77098 10.5216 6.75451 10.5046 6.73673C10.492 6.72355 10.4828 6.7084 10.4685 6.69753C10.4498 6.6837 10.4277 6.67612 10.4063 6.66591C10.3879 6.65702 10.3716 6.64549 10.3519 6.64022C10.3315 6.63495 10.3097 6.6366 10.2883 6.63495C10.2662 6.63298 10.2448 6.62672 10.222 6.62935C10.22 6.62935 10.2183 6.63067 10.2162 6.631C10.2142 6.631 10.2125 6.63034 10.2105 6.63067L8.04431 6.93271L8.55941 1.4361C8.56723 1.34914 8.53969 1.26252 8.48189 1.19565C8.42409 1.12846 8.34113 1.0863 8.25137 1.0784L1.68189 0.501001C1.49591 0.487167 1.32965 0.618258 1.31265 0.799415L0.76525 6.63792C0.75709 6.72487 0.78497 6.8115 0.84277 6.87836C0.90057 6.94522 0.98353 6.98771 1.07329 6.99562L5.07305 7.34739L2.35203 7.72683C2.33061 7.72979 2.31327 7.74066 2.29355 7.74692C2.27077 7.7545 2.24629 7.75845 2.22623 7.77031C2.20957 7.77986 2.19801 7.79501 2.18339 7.8072C2.16469 7.82235 2.14429 7.83552 2.12933 7.85463C2.11811 7.86912 2.11301 7.88724 2.10417 7.90337C2.09295 7.92445 2.07867 7.94422 2.07221 7.9676C2.06677 7.98671 2.06983 8.00779 2.06813 8.02821C2.06643 8.05093 2.06031 8.073 2.06337 8.09639L2.89671 14.1526C2.90011 14.1763 2.91099 14.1964 2.91881 14.2182C2.92459 14.2336 2.92663 14.2508 2.93445 14.2649C2.94567 14.2853 2.96267 14.3012 2.97797 14.3186C2.98885 14.3311 2.99701 14.3459 3.00925 14.3565C3.02761 14.372 3.05039 14.3819 3.07181 14.3934C3.08575 14.4006 3.09731 14.4112 3.11227 14.4168C3.15001 14.4309 3.19081 14.4385 3.23297 14.4385C3.24623 14.4385 3.25915 14.4378 3.27241 14.4362L3.27785 14.4355L6.29841 14.0976L3.89019 14.7132C3.86979 14.7185 3.85449 14.7307 3.83613 14.7389C3.81505 14.7484 3.79295 14.755 3.77459 14.7682C3.75691 14.7807 3.74501 14.7982 3.73039 14.8137C3.71577 14.8295 3.69877 14.843 3.68755 14.8614C3.67633 14.8792 3.67191 14.8996 3.66443 14.9191C3.65661 14.9392 3.64641 14.9579 3.64267 14.9793C3.63927 15.0001 3.64335 15.0218 3.64437 15.0436C3.64505 15.064 3.64097 15.0834 3.64573 15.1042L4.33049 18.0458C4.36619 18.199 4.50661 18.3027 4.66199 18.3027C4.68681 18.3027 4.71197 18.3001 4.73713 18.2948C4.92039 18.2546 5.03531 18.0784 4.99383 17.9012L4.38115 15.2692L13.8814 12.84L15.6828 19.9265L13.9063 20.3617L13.6349 19.9608C13.3993 19.612 13.0019 19.4045 12.5714 19.4045C12.3236 19.4045 12.0825 19.4743 11.8751 19.6061C11.5909 19.7866 11.3964 20.0632 11.3274 20.3854C11.2583 20.7075 11.3226 21.0362 11.5089 21.3112L12.5507 22.8498C12.7863 23.1986 13.1841 23.4064 13.6145 23.4064C13.8624 23.4064 14.1031 23.3366 14.3109 23.2045C14.5951 23.0243 14.7892 22.7473 14.8583 22.4255C14.9276 22.1031 14.863 21.774 14.6767 21.4993L14.301 20.9443L16.1768 20.4845C16.2033 20.4779 16.2247 20.4634 16.2482 20.4512C16.2645 20.443 16.2832 20.4387 16.2978 20.4282C16.3138 20.4167 16.3237 20.4002 16.3369 20.3864C16.3536 20.3689 16.3723 20.3541 16.3852 20.3343C16.3937 20.3202 16.3961 20.3034 16.4025 20.2882C16.4127 20.2645 16.4253 20.2414 16.4294 20.2157C16.4338 20.191 16.4284 20.1644 16.4263 20.138ZM1.47313 6.36947L1.95899 1.18709L7.85187 1.7052L7.36635 6.88791L1.47313 6.36947ZM3.52639 13.7448L2.78179 8.33222L9.95987 7.33125L10.5991 12.9534L3.52639 13.7448ZM14.1932 22.2915C14.1609 22.4413 14.0708 22.5701 13.9389 22.6541C13.673 22.8234 13.2929 22.7444 13.1198 22.4888L12.0781 20.9499C11.9917 20.8221 11.9615 20.6693 11.9938 20.5198C12.0261 20.3699 12.1162 20.2411 12.2488 20.1571C12.3453 20.0955 12.4572 20.0632 12.5721 20.0632C12.7724 20.0632 12.9573 20.1597 13.0671 20.3221L13.4714 20.9193C13.4721 20.9203 13.4728 20.9213 13.4734 20.9226L14.1089 21.861C14.1956 21.9888 14.2255 22.1416 14.1932 22.2915Z" fill="#00764B"/>
<path d="M6.94611 19.5415C6.83799 19.2299 6.61121 18.9773 6.30725 18.8311C6.12943 18.7451 5.93903 18.7013 5.74115 18.7013C5.25563 18.7013 4.81941 18.9628 4.60215 19.3838L3.75691 21.032C3.60527 21.3264 3.58113 21.6601 3.68891 21.972C3.79669 22.2836 4.02347 22.5362 4.32777 22.6831C4.50559 22.7687 4.69599 22.8122 4.89353 22.8122C5.15533 22.8122 5.40081 22.7345 5.60753 22.5991L5.64459 22.7319C5.65003 22.7513 5.66091 22.7671 5.66975 22.7846C5.67723 22.7997 5.68199 22.8165 5.69117 22.83C5.70307 22.8468 5.71905 22.8597 5.73367 22.8741C5.74489 22.885 5.75407 22.8982 5.76699 22.9077C5.78467 22.9206 5.80541 22.9285 5.82547 22.9384C5.83839 22.9446 5.84961 22.9532 5.86321 22.9578C5.89449 22.968 5.92781 22.9726 5.96181 22.9739C5.96555 22.9739 5.96895 22.9756 5.97235 22.9756C5.97303 22.9756 5.97405 22.9753 5.97405 22.9753C6.00125 22.9753 6.02845 22.9723 6.05565 22.9657L10.6905 21.83C10.8724 21.7852 10.9826 21.6061 10.937 21.4298C10.8904 21.2533 10.7048 21.1466 10.5239 21.191L6.21273 22.2473L6.12773 21.9443L6.87811 20.4826C7.02975 20.1871 7.05389 19.8531 6.94611 19.5415ZM6.26951 20.1881L5.42393 21.8356C5.28249 22.1113 4.91869 22.2319 4.63071 22.0932C4.48927 22.025 4.38353 21.9078 4.33355 21.7625C4.28323 21.6179 4.29445 21.4624 4.36517 21.3254L5.21075 19.6772C5.31139 19.4813 5.51471 19.3597 5.74081 19.3597C5.83227 19.3597 5.92067 19.3801 6.00329 19.4203C6.14507 19.4885 6.25081 19.6058 6.30079 19.7507C6.35145 19.8959 6.34023 20.0507 6.26951 20.1881Z" fill="#00764B"/>
<path d="M16.372 28.68C16.372 28.16 16.464 27.652 16.648 27.156C16.84 26.652 17.116 26.196 17.476 25.788C17.836 25.372 18.276 25.044 18.796 24.804C19.316 24.556 19.908 24.432 20.572 24.432C21.356 24.432 22.032 24.604 22.6 24.948C23.176 25.292 23.604 25.74 23.884 26.292L22.612 27.168C22.468 26.848 22.28 26.596 22.048 26.412C21.816 26.22 21.568 26.088 21.304 26.016C21.04 25.936 20.78 25.896 20.524 25.896C20.108 25.896 19.744 25.98 19.432 26.148C19.128 26.316 18.872 26.536 18.664 26.808C18.456 27.08 18.3 27.384 18.196 27.72C18.1 28.056 18.052 28.392 18.052 28.728C18.052 29.104 18.112 29.468 18.232 29.82C18.352 30.164 18.52 30.472 18.736 30.744C18.96 31.008 19.224 31.22 19.528 31.38C19.84 31.532 20.18 31.608 20.548 31.608C20.812 31.608 21.08 31.564 21.352 31.476C21.624 31.388 21.876 31.248 22.108 31.056C22.34 30.864 22.52 30.616 22.648 30.312L24.004 31.092C23.836 31.516 23.56 31.876 23.176 32.172C22.8 32.468 22.376 32.692 21.904 32.844C21.432 32.996 20.964 33.072 20.5 33.072C19.892 33.072 19.336 32.948 18.832 32.7C18.328 32.444 17.892 32.108 17.524 31.692C17.164 31.268 16.88 30.796 16.672 30.276C16.472 29.748 16.372 29.216 16.372 28.68ZM27.8391 33.12C27.3271 33.12 26.8671 33.036 26.4591 32.868C26.0511 32.692 25.7031 32.452 25.4151 32.148C25.1351 31.844 24.9191 31.496 24.7671 31.104C24.6151 30.712 24.5391 30.3 24.5391 29.868C24.5391 29.428 24.6151 29.012 24.7671 28.62C24.9191 28.228 25.1351 27.88 25.4151 27.576C25.7031 27.272 26.0511 27.036 26.4591 26.868C26.8671 26.692 27.3271 26.604 27.8391 26.604C28.3511 26.604 28.8071 26.692 29.2071 26.868C29.6151 27.036 29.9631 27.272 30.2511 27.576C30.5391 27.88 30.7551 28.228 30.8991 28.62C31.0511 29.012 31.1271 29.428 31.1271 29.868C31.1271 30.3 31.0511 30.712 30.8991 31.104C30.7551 31.496 30.5391 31.844 30.2511 32.148C29.9711 32.452 29.6271 32.692 29.2191 32.868C28.8111 33.036 28.3511 33.12 27.8391 33.12ZM26.1951 29.868C26.1951 30.236 26.2671 30.564 26.4111 30.852C26.5551 31.132 26.7511 31.352 26.9991 31.512C27.2471 31.672 27.5271 31.752 27.8391 31.752C28.1431 31.752 28.4191 31.672 28.6671 31.512C28.9151 31.344 29.1111 31.12 29.2551 30.84C29.4071 30.552 29.4831 30.224 29.4831 29.856C29.4831 29.496 29.4071 29.172 29.2551 28.884C29.1111 28.596 28.9151 28.372 28.6671 28.212C28.4191 28.052 28.1431 27.972 27.8391 27.972C27.5271 27.972 27.2471 28.056 26.9991 28.224C26.7511 28.384 26.5551 28.608 26.4111 28.896C26.2671 29.176 26.1951 29.5 26.1951 29.868ZM35.1165 33.12C34.6045 33.12 34.1445 33.036 33.7365 32.868C33.3285 32.692 32.9805 32.452 32.6925 32.148C32.4125 31.844 32.1965 31.496 32.0445 31.104C31.8925 30.712 31.8165 30.3 31.8165 29.868C31.8165 29.428 31.8925 29.012 32.0445 28.62C32.1965 28.228 32.4125 27.88 32.6925 27.576C32.9805 27.272 33.3285 27.036 33.7365 26.868C34.1445 26.692 34.6045 26.604 35.1165 26.604C35.6285 26.604 36.0845 26.692 36.4845 26.868C36.8925 27.036 37.2405 27.272 37.5285 27.576C37.8165 27.88 38.0325 28.228 38.1765 28.62C38.3285 29.012 38.4045 29.428 38.4045 29.868C38.4045 30.3 38.3285 30.712 38.1765 31.104C38.0325 31.496 37.8165 31.844 37.5285 32.148C37.2485 32.452 36.9045 32.692 36.4965 32.868C36.0885 33.036 35.6285 33.12 35.1165 33.12ZM33.4725 29.868C33.4725 30.236 33.5445 30.564 33.6885 30.852C33.8325 31.132 34.0285 31.352 34.2765 31.512C34.5245 31.672 34.8045 31.752 35.1165 31.752C35.4205 31.752 35.6965 31.672 35.9445 31.512C36.1925 31.344 36.3885 31.12 36.5325 30.84C36.6845 30.552 36.7605 30.224 36.7605 29.856C36.7605 29.496 36.6845 29.172 36.5325 28.884C36.3885 28.596 36.1925 28.372 35.9445 28.212C35.6965 28.052 35.4205 27.972 35.1165 27.972C34.8045 27.972 34.5245 28.056 34.2765 28.224C34.0285 28.384 33.8325 28.608 33.6885 28.896C33.5445 29.176 33.4725 29.5 33.4725 29.868ZM39.4778 24.24H41.0858V30.984C41.0858 31.272 41.1338 31.468 41.2298 31.572C41.3258 31.668 41.4578 31.716 41.6258 31.716C41.7538 31.716 41.8858 31.7 42.0218 31.668C42.1578 31.636 42.2778 31.596 42.3818 31.548L42.5978 32.772C42.3818 32.876 42.1298 32.956 41.8418 33.012C41.5538 33.068 41.2938 33.096 41.0618 33.096C40.5578 33.096 40.1658 32.964 39.8858 32.7C39.6138 32.428 39.4778 32.044 39.4778 31.548V24.24ZM43.2984 33V26.712H44.9064V33H43.2984ZM43.2984 25.836V24.24H44.9064V25.836H43.2984ZM49.273 33.12C48.769 33.12 48.313 33.036 47.905 32.868C47.497 32.692 47.149 32.456 46.861 32.16C46.573 31.856 46.349 31.512 46.189 31.128C46.037 30.736 45.961 30.324 45.961 29.892C45.961 29.292 46.093 28.744 46.357 28.248C46.629 27.752 47.013 27.356 47.509 27.06C48.013 26.756 48.605 26.604 49.285 26.604C49.973 26.604 50.561 26.756 51.049 27.06C51.537 27.356 51.909 27.752 52.165 28.248C52.429 28.736 52.561 29.264 52.561 29.832C52.561 29.928 52.557 30.028 52.549 30.132C52.541 30.228 52.533 30.308 52.525 30.372H47.665C47.697 30.692 47.789 30.972 47.941 31.212C48.101 31.452 48.301 31.636 48.541 31.764C48.789 31.884 49.053 31.944 49.333 31.944C49.653 31.944 49.953 31.868 50.233 31.716C50.521 31.556 50.717 31.348 50.821 31.092L52.201 31.476C52.049 31.796 51.829 32.08 51.541 32.328C51.261 32.576 50.929 32.772 50.545 32.916C50.161 33.052 49.737 33.12 49.273 33.12ZM47.629 29.352H50.917C50.885 29.032 50.793 28.756 50.641 28.524C50.497 28.284 50.305 28.1 50.065 27.972C49.825 27.836 49.557 27.768 49.261 27.768C48.973 27.768 48.709 27.836 48.469 27.972C48.237 28.1 48.045 28.284 47.893 28.524C47.749 28.756 47.661 29.032 47.629 29.352Z" fill="black"/>
<path d="M53.8577 24.48L56.1618 31.032L58.4418 24.48H60.1818L56.9538 33H55.3578L52.1178 24.48H53.8577ZM59.8234 31.14C59.8234 30.732 59.9354 30.376 60.1594 30.072C60.3914 29.76 60.7114 29.52 61.1194 29.352C61.5274 29.184 61.9954 29.1 62.5234 29.1C62.7874 29.1 63.0554 29.12 63.3274 29.16C63.5994 29.2 63.8354 29.264 64.0354 29.352V29.016C64.0354 28.616 63.9154 28.308 63.6754 28.092C63.4434 27.876 63.0954 27.768 62.6314 27.768C62.2874 27.768 61.9594 27.828 61.6474 27.948C61.3354 28.068 61.0074 28.244 60.6634 28.476L60.1474 27.42C60.5634 27.148 60.9874 26.944 61.4194 26.808C61.8594 26.672 62.3194 26.604 62.7994 26.604C63.6954 26.604 64.3914 26.828 64.8874 27.276C65.3914 27.724 65.6434 28.364 65.6434 29.196V31.2C65.6434 31.368 65.6714 31.488 65.7274 31.56C65.7914 31.632 65.8914 31.676 66.0274 31.692V33C65.8834 33.024 65.7514 33.044 65.6314 33.06C65.5194 33.076 65.4234 33.084 65.3434 33.084C65.0234 33.084 64.7794 33.012 64.6114 32.868C64.4514 32.724 64.3514 32.548 64.3114 32.34L64.2754 32.016C64.0034 32.368 63.6634 32.64 63.2554 32.832C62.8474 33.024 62.4314 33.12 62.0074 33.12C61.5914 33.12 61.2154 33.036 60.8794 32.868C60.5514 32.692 60.2914 32.456 60.0994 32.16C59.9154 31.856 59.8234 31.516 59.8234 31.14ZM63.7354 31.464C63.8234 31.368 63.8954 31.272 63.9514 31.176C64.0074 31.08 64.0354 30.992 64.0354 30.912V30.276C63.8434 30.196 63.6354 30.136 63.4114 30.096C63.1874 30.048 62.9754 30.024 62.7754 30.024C62.3594 30.024 62.0154 30.116 61.7434 30.3C61.4794 30.476 61.3474 30.712 61.3474 31.008C61.3474 31.168 61.3914 31.32 61.4794 31.464C61.5674 31.608 61.6954 31.724 61.8634 31.812C62.0314 31.9 62.2314 31.944 62.4634 31.944C62.7034 31.944 62.9394 31.9 63.1714 31.812C63.4034 31.716 63.5914 31.6 63.7354 31.464ZM67.1341 24.24H68.7421V30.984C68.7421 31.272 68.7901 31.468 68.8861 31.572C68.9821 31.668 69.1141 31.716 69.2821 31.716C69.4101 31.716 69.5421 31.7 69.6781 31.668C69.8141 31.636 69.9341 31.596 70.0381 31.548L70.2541 32.772C70.0381 32.876 69.7861 32.956 69.4981 33.012C69.2101 33.068 68.9501 33.096 68.7181 33.096C68.2141 33.096 67.8221 32.964 67.5421 32.7C67.2701 32.428 67.1341 32.044 67.1341 31.548V24.24ZM70.5227 31.14C70.5227 30.732 70.6347 30.376 70.8587 30.072C71.0907 29.76 71.4107 29.52 71.8187 29.352C72.2267 29.184 72.6947 29.1 73.2227 29.1C73.4867 29.1 73.7547 29.12 74.0267 29.16C74.2987 29.2 74.5347 29.264 74.7347 29.352V29.016C74.7347 28.616 74.6147 28.308 74.3747 28.092C74.1427 27.876 73.7947 27.768 73.3307 27.768C72.9867 27.768 72.6587 27.828 72.3467 27.948C72.0347 28.068 71.7067 28.244 71.3627 28.476L70.8467 27.42C71.2627 27.148 71.6867 26.944 72.1187 26.808C72.5587 26.672 73.0187 26.604 73.4987 26.604C74.3947 26.604 75.0907 26.828 75.5867 27.276C76.0907 27.724 76.3427 28.364 76.3427 29.196V31.2C76.3427 31.368 76.3707 31.488 76.4267 31.56C76.4907 31.632 76.5907 31.676 76.7267 31.692V33C76.5827 33.024 76.4507 33.044 76.3307 33.06C76.2187 33.076 76.1227 33.084 76.0427 33.084C75.7227 33.084 75.4787 33.012 75.3107 32.868C75.1507 32.724 75.0507 32.548 75.0107 32.34L74.9747 32.016C74.7027 32.368 74.3627 32.64 73.9547 32.832C73.5467 33.024 73.1307 33.12 72.7067 33.12C72.2907 33.12 71.9147 33.036 71.5787 32.868C71.2507 32.692 70.9907 32.456 70.7987 32.16C70.6147 31.856 70.5227 31.516 70.5227 31.14ZM74.4347 31.464C74.5227 31.368 74.5947 31.272 74.6507 31.176C74.7067 31.08 74.7347 30.992 74.7347 30.912V30.276C74.5427 30.196 74.3347 30.136 74.1107 30.096C73.8867 30.048 73.6747 30.024 73.4747 30.024C73.0587 30.024 72.7147 30.116 72.4427 30.3C72.1787 30.476 72.0467 30.712 72.0467 31.008C72.0467 31.168 72.0907 31.32 72.1787 31.464C72.2667 31.608 72.3947 31.724 72.5627 31.812C72.7307 31.9 72.9307 31.944 73.1627 31.944C73.4027 31.944 73.6387 31.9 73.8707 31.812C74.1027 31.716 74.2907 31.6 74.4347 31.464Z" fill="#00764B"/>
</svg>
