<svg width="50" height="46" viewBox="0 0 50 46" fill="none" xmlns="http://www.w3.org/2000/svg">
<path d="M14.903 14.478C15.0175 14.713 15.1327 14.9822 15.2466 15.2966C15.7916 16.8076 16.2501 19.2865 16.2488 23.1561C16.2488 24.2225 16.2144 25.3938 16.1397 26.6809C16.0902 27.5337 16.741 28.2655 17.5942 28.3152C17.6248 28.317 17.6549 28.3179 17.6853 28.3179C18.4989 28.3179 19.181 27.6832 19.2289 26.8605C19.3063 25.5195 19.3427 24.2886 19.343 23.1563C19.3351 17.3189 18.403 14.0885 17.1314 12.1463C16.4961 11.1818 15.7531 10.5634 15.0664 10.2211C14.4092 9.8892 13.8308 9.8132 13.4815 9.80856C13.457 9.8074 13.4332 9.80469 13.4082 9.80469H5.93655C5.91199 9.80469 5.8882 9.8072 5.86364 9.80856C5.51495 9.81281 4.93555 9.88862 4.27686 10.2207C3.2366 10.7366 2.11513 11.8649 1.33034 13.8644C0.535889 15.8716 0.00309427 18.7736 0 23.1559C0.000386784 24.2884 0.036551 25.5201 0.116035 26.8609C0.163996 27.6828 0.845702 28.3173 1.65872 28.3175C1.68928 28.3175 1.71983 28.3166 1.75097 28.3146C2.60383 28.2644 3.25498 27.5326 3.20469 26.6797C3.12908 25.3931 3.09485 24.2215 3.09485 23.1557C3.08808 18.4717 3.77133 15.8406 4.44221 14.4678V43.4781C4.44221 44.799 5.51302 45.869 6.83311 45.869C8.15359 45.869 9.2244 44.799 9.2244 43.4781V26.0204H10.1208V43.4781C10.1208 44.799 11.1916 45.869 12.5117 45.869C13.8322 45.869 14.903 44.799 14.903 43.4781V14.478ZM10.3416 14.5906H13.8227V15.3641H10.3416V14.5906Z" fill="#606060"/>
<path d="M10.3824 8.64424C12.1872 8.34796 13.6169 6.942 13.9491 5.14965C13.9619 5.07944 13.9733 5.00886 13.9832 4.93749C13.5908 4.91738 13.1767 4.87522 12.7511 4.80908C10.5232 4.46252 8.80589 3.58974 8.85521 2.84228C9.14974 3.51142 10.8744 4.02584 12.964 4.02584C15.2605 4.02584 17.1223 3.40525 17.1223 2.6398C17.1223 1.87436 15.2605 1.25376 12.964 1.25376C12.8855 1.25376 12.8087 1.25627 12.7314 1.25763C12.268 0.799483 11.7021 0.445382 11.0713 0.231103C10.6319 0.0819982 10.1618 0 9.67229 0C7.2692 0 5.32097 1.94823 5.32097 4.35132C5.32097 6.51287 6.89711 8.30522 8.96254 8.64424C9.19364 8.68215 9.43055 8.70284 9.67229 8.70284C9.91403 8.70284 10.1511 8.68215 10.3824 8.64424Z" fill="#606060"/>
<path d="M45.9305 39.5427C44.5759 39.5427 43.4318 40.4152 43.0009 41.6236H28.0512C27.7369 40.7422 27.0435 40.0487 26.162 39.7345V26.0169C26.162 23.1486 23.8281 20.8147 20.9598 20.8147C20.3852 20.8147 19.9193 21.2801 19.9193 21.8551C19.9193 22.4302 20.3852 22.8956 20.9598 22.8956C22.681 22.8956 24.0811 24.2957 24.0811 26.0169V39.7345C22.8726 40.1653 22.0002 41.3095 22.0002 42.6641C22.0002 44.3853 23.4004 45.7854 25.1216 45.7854C26.4762 45.7854 27.6203 44.913 28.0512 43.7045H43.001C43.4318 44.913 44.5759 45.7854 45.9305 45.7854C47.6517 45.7854 49.0519 44.3853 49.0519 42.6641C49.0519 40.9429 47.6517 39.5427 45.9305 39.5427Z" fill="#606060"/>
<path d="M35.2375 31.3063C35.4123 31.1895 35.6398 31.1895 35.8146 31.3063L36.5665 31.8077V28.0979H34.4856V31.8077L35.2375 31.3063Z" fill="#606060"/>
<path d="M41.7687 28.0979H37.6069V32.7796C37.6069 32.9716 37.5013 33.1479 37.3321 33.2383C37.2554 33.2795 37.1711 33.2998 37.0867 33.2998C36.9856 33.2998 36.885 33.2704 36.7982 33.2124L35.526 32.3645L34.2539 33.2124C34.0944 33.3191 33.8887 33.3293 33.72 33.2383C33.5508 33.1479 33.4452 32.9716 33.4452 32.7796V28.0979H29.2834C28.7087 28.0979 28.2429 28.5637 28.2429 29.1383V39.5428C28.2429 40.1174 28.7087 40.5833 29.2834 40.5833H41.7687C42.3434 40.5833 42.8092 40.1174 42.8092 39.5428V29.1383C42.8092 28.5637 42.3434 28.0979 41.7687 28.0979Z" fill="#606060"/>
<path d="M35.2375 18.821C35.4123 18.7042 35.6399 18.7042 35.8146 18.821L36.5665 19.3225V16.6531H34.4856V19.3225L35.2375 18.821Z" fill="#606060"/>
<path d="M40.7283 16.6531H37.6069V20.2943C37.6069 20.4864 37.5013 20.6626 37.3321 20.7531C37.2554 20.7942 37.1711 20.8145 37.0867 20.8145C36.9856 20.8145 36.885 20.7851 36.7982 20.7272L35.5261 19.8793L34.2539 20.7272C34.0944 20.8339 33.8887 20.844 33.72 20.7531C33.5508 20.6626 33.4452 20.4864 33.4452 20.2943V16.6531H30.3238C29.7492 16.6531 29.2834 17.1189 29.2834 17.6935V26.0171C29.2834 26.5917 29.7492 27.0576 30.3238 27.0576H40.7283C41.3029 27.0576 41.7687 26.5917 41.7687 26.0171V17.6935C41.7687 17.1189 41.3029 16.6531 40.7283 16.6531Z" fill="#606060"/>
</svg>
