<svg width="60" height="16" viewBox="0 0 60 16" fill="none" xmlns="http://www.w3.org/2000/svg">
<path fill-rule="evenodd" clip-rule="evenodd" d="M9.18277 0C9.18106 4.69852e-05 9.17935 0.000123071 9.17764 0.000212818C9.15247 0.00014121 9.1275 0.00469228 9.10398 0.0136579L0.513535 2.25714C0.46334 2.26951 0.419665 2.30037 0.39125 2.34356C0.362834 2.38674 0.351773 2.43907 0.36028 2.49006V12.7112C0.36028 12.7535 0.373348 12.7948 0.397694 12.8293C0.42204 12.8639 0.456475 12.8901 0.496286 12.9044L9.11077 15.9871C9.13759 15.9971 9.16619 16.0014 9.19475 15.9996C9.22331 15.9979 9.25119 15.9902 9.2766 15.9771L9.32897 15.958H9.32993L17.8614 12.9047C17.9012 12.8904 17.9356 12.8642 17.96 12.8297C17.9843 12.7951 17.9974 12.7539 17.9974 12.7116L17.9995 2.47152C18.0028 2.42495 17.9902 2.37862 17.9637 2.34019C17.9602 2.33511 17.9565 2.33 17.9525 2.32525C17.9515 2.32405 17.9505 2.32286 17.9494 2.32167C17.9463 2.31815 17.9431 2.31472 17.9398 2.31141C17.9378 2.3094 17.9358 2.30744 17.9337 2.30552C17.9311 2.30315 17.9285 2.30083 17.9258 2.29859C17.9224 2.29576 17.9189 2.29305 17.9153 2.29045C17.914 2.28949 17.9127 2.28855 17.9114 2.28762C17.9065 2.28427 17.9015 2.28113 17.8964 2.27821C17.8961 2.27807 17.8958 2.27793 17.8955 2.2778C17.8953 2.27773 17.8951 2.27766 17.8949 2.2776C17.8765 2.26721 17.8566 2.25972 17.836 2.25541L9.25583 0.0141336C9.23251 0.00514844 9.20775 0.000499337 9.18277 0.000413118V0ZM9.17987 0.41785L16.9739 2.45378L13.489 3.34543L6.18314 1.20046L9.17987 0.41785ZM5.41444 1.40121C5.42092 1.40385 5.42752 1.40615 5.43423 1.40812L12.7109 3.5445L9.17987 4.44793L1.38485 2.45352L5.41444 1.40121ZM0.770493 2.71978L8.97477 4.81886V15.5027L0.770493 12.5668V2.71978ZM17.5892 2.71978L17.5871 12.5668L9.38492 15.5023V4.81886L13.2818 3.82186L13.2799 6.58515C13.2795 6.61233 13.2845 6.63932 13.2946 6.66455C13.3048 6.68977 13.3198 6.71273 13.3389 6.7321C13.3579 6.75146 13.3807 6.76685 13.4057 6.77735C13.4308 6.78786 13.4577 6.79327 13.4849 6.79329C13.5121 6.7933 13.539 6.78791 13.5641 6.77743C13.5892 6.76695 13.6119 6.75159 13.631 6.73225C13.6501 6.7129 13.6652 6.68995 13.6753 6.66473C13.6854 6.63952 13.6905 6.61253 13.6901 6.58535L13.692 3.71681L17.5892 2.71978Z" fill="#006641"/>
<path fill-rule="evenodd" clip-rule="evenodd" d="M30.8253 0C30.8236 4.69852e-05 30.8219 0.000123071 30.8202 0.000212818C30.795 0.00014121 30.77 0.00469228 30.7465 0.0136579L22.1561 2.25714C22.1059 2.26951 22.0622 2.30037 22.0338 2.34356C22.0054 2.38674 21.9943 2.43907 22.0028 2.49006V12.7112C22.0028 12.7535 22.0159 12.7948 22.0402 12.8293C22.0646 12.8639 22.099 12.8901 22.1388 12.9044L30.7533 15.9871C30.7801 15.9971 30.8087 16.0014 30.8373 15.9996C30.8658 15.9979 30.8937 15.9902 30.9191 15.9771L30.9715 15.958H30.9724L39.5039 12.9047C39.5437 12.8904 39.5782 12.8642 39.6025 12.8297C39.6268 12.7951 39.6399 12.7539 39.6399 12.7116L39.642 2.47152C39.6454 2.42495 39.6328 2.37862 39.6062 2.34019C39.6027 2.33511 39.599 2.33 39.595 2.32525C39.594 2.32405 39.593 2.32286 39.5919 2.32167C39.5889 2.31815 39.5857 2.31472 39.5823 2.31141C39.5803 2.3094 39.5783 2.30744 39.5762 2.30552C39.5736 2.30315 39.571 2.30083 39.5683 2.29859C39.5649 2.29576 39.5614 2.29305 39.5578 2.29045C39.5565 2.28949 39.5552 2.28855 39.5539 2.28762C39.549 2.28427 39.544 2.28113 39.5389 2.27821C39.5386 2.27807 39.5383 2.27793 39.5381 2.2778C39.5379 2.27773 39.5376 2.27766 39.5374 2.2776C39.519 2.26721 39.4992 2.25972 39.4785 2.25541L30.8983 0.0141336C30.875 0.00514844 30.8503 0.000499337 30.8253 0.000413118V0ZM30.8224 0.41785L38.6165 2.45378L35.1315 3.34543L27.8257 1.20046L30.8224 0.41785ZM27.057 1.40121C27.0634 1.40385 27.07 1.40615 27.0768 1.40812L34.3534 3.5445L30.8224 4.44793L23.0274 2.45352L27.057 1.40121ZM22.413 2.71978L30.6173 4.81886V15.5027L22.413 12.5668V2.71978ZM39.2317 2.71978L39.2297 12.5668L31.0274 15.5023V4.81886L34.9243 3.82186L34.9224 6.58515C34.922 6.61233 34.927 6.63932 34.9371 6.66455C34.9473 6.68977 34.9623 6.71273 34.9814 6.7321C35.0005 6.75146 35.0232 6.76685 35.0483 6.77735C35.0733 6.78786 35.1002 6.79327 35.1274 6.79329C35.1546 6.7933 35.1815 6.78791 35.2066 6.77743C35.2317 6.76695 35.2544 6.75159 35.2735 6.73225C35.2926 6.7129 35.3077 6.68995 35.3178 6.66473C35.328 6.63952 35.333 6.61253 35.3326 6.58535L35.3346 3.71681L39.2317 2.71978Z" fill="#006641"/>
<path fill-rule="evenodd" clip-rule="evenodd" d="M51.6462 0.744751C51.6446 0.744794 51.6431 0.744863 51.6415 0.744944C51.6187 0.744879 51.596 0.749006 51.5747 0.757137L43.784 2.79175C43.7385 2.80297 43.6989 2.83096 43.6731 2.87012C43.6474 2.90929 43.6373 2.95674 43.6451 3.00299V12.2726C43.6451 12.3109 43.6569 12.3483 43.679 12.3797C43.7011 12.411 43.7323 12.4348 43.7684 12.4477L51.5809 15.2435C51.6052 15.2525 51.6311 15.2564 51.657 15.2548C51.6829 15.2532 51.7082 15.2463 51.7313 15.2343L51.7788 15.217H51.7796L59.5168 12.448C59.5529 12.4351 59.5841 12.4113 59.6062 12.38C59.6283 12.3486 59.6402 12.3112 59.6402 12.2729L59.642 2.98617C59.6451 2.94394 59.6337 2.90192 59.6096 2.86707C59.6064 2.86246 59.603 2.85783 59.5994 2.85352C59.5985 2.85243 59.5976 2.85135 59.5966 2.85028C59.5938 2.84708 59.5909 2.84397 59.5879 2.84097C59.5861 2.83915 59.5843 2.83737 59.5824 2.83563C59.58 2.83347 59.5777 2.83138 59.5753 2.82934C59.5721 2.82678 59.5689 2.82432 59.5657 2.82196C59.5645 2.82109 59.5633 2.82024 59.5621 2.8194C59.5577 2.81635 59.5532 2.81351 59.5485 2.81086C59.5483 2.81073 59.548 2.81061 59.5478 2.81048C59.5476 2.81042 59.5474 2.81036 59.5472 2.8103C59.5305 2.80088 59.5125 2.79409 59.4937 2.79018L51.7124 0.757569C51.6913 0.74942 51.6688 0.745204 51.6462 0.745126V0.744751ZM51.6435 1.1237L58.712 2.97009L55.5515 3.77872L48.9258 1.83345L51.6435 1.1237ZM48.2287 2.01551C48.2345 2.0179 48.2405 2.01999 48.2466 2.02177L54.8458 3.95926L51.6435 4.77858L44.5742 2.96985L48.2287 2.01551ZM44.0171 3.21132L51.4575 5.11497V14.8042L44.0171 12.1416V3.21132ZM59.27 3.21132L59.2681 12.1416L51.8295 14.8038V5.11497L55.3635 4.21079L55.3619 6.71682C55.3615 6.74147 55.366 6.76595 55.3752 6.78883C55.3844 6.8117 55.398 6.83253 55.4153 6.85009C55.4326 6.86765 55.4532 6.88161 55.476 6.89113C55.4987 6.90066 55.5231 6.90557 55.5478 6.90558C55.5724 6.9056 55.5968 6.9007 55.6196 6.8912C55.6423 6.8817 55.663 6.86777 55.6803 6.85022C55.6976 6.83268 55.7112 6.81187 55.7204 6.789C55.7296 6.76613 55.7342 6.74165 55.7339 6.71701L55.7356 4.11553L59.27 3.21132Z" fill="#006641"/>
</svg>
