<svg width="58" height="24" viewBox="0 0 58 24" fill="none" xmlns="http://www.w3.org/2000/svg">
<path fill-rule="evenodd" clip-rule="evenodd" d="M13.7741 0C13.7716 7.04778e-05 13.769 0.000184607 13.7664 0.000319228C13.7287 0.000211815 13.6912 0.00703842 13.6559 0.0204869L0.770273 3.38571C0.694979 3.40426 0.629467 3.45055 0.586844 3.51533C0.544221 3.58011 0.527629 3.65861 0.540389 3.73509V19.0668C0.54039 19.1303 0.559991 19.1921 0.59651 19.244C0.633029 19.2959 0.684682 19.3352 0.744398 19.3566L13.6661 23.9807C13.7064 23.9956 13.7493 24.002 13.7921 23.9994C13.8349 23.9968 13.8768 23.9853 13.9149 23.9656L13.9934 23.937H13.9949L26.7921 19.357C26.8518 19.3356 26.9034 19.2964 26.9399 19.2445C26.9765 19.1927 26.9961 19.1308 26.9961 19.0674L26.9992 3.70728C27.0042 3.63743 26.9853 3.56793 26.9455 3.51028C26.9403 3.50266 26.9347 3.495 26.9287 3.48788C26.9272 3.48607 26.9257 3.48429 26.9241 3.48251C26.9195 3.47722 26.9147 3.47207 26.9097 3.46711C26.9067 3.46411 26.9036 3.46117 26.9005 3.45829C26.8966 3.45472 26.8927 3.45125 26.8887 3.44788C26.8836 3.44364 26.8783 3.43958 26.8729 3.43568C26.8709 3.43424 26.869 3.43283 26.867 3.43143C26.8597 3.4264 26.8522 3.42169 26.8445 3.41731C26.8441 3.41711 26.8437 3.4169 26.8433 3.41669C26.843 3.41659 26.8427 3.41649 26.8424 3.41639C26.8148 3.40082 26.7849 3.38958 26.7539 3.38312L13.8837 0.0212005C13.8487 0.00772266 13.8116 0.000749005 13.7741 0.000619677V0ZM13.7698 0.626775L25.4609 3.68068L20.2334 5.01815L9.27468 1.80069L13.7698 0.626775ZM8.12163 2.10181C8.13134 2.10577 8.14125 2.10923 8.15132 2.11218L19.0662 5.31675L13.7698 6.67189L2.07724 3.68028L8.12163 2.10181ZM1.15571 4.07967L13.4621 7.22829V23.2541L1.15571 18.8503V4.07967ZM26.3838 4.07967L26.3807 18.8503L14.0773 23.2535V7.22829L19.9226 5.73278L19.9198 9.87773C19.9192 9.9185 19.9267 9.95898 19.9419 9.99682C19.9571 10.0347 19.9797 10.0691 20.0083 10.0981C20.0369 10.1272 20.071 10.1503 20.1086 10.166C20.1462 10.1818 20.1865 10.1899 20.2273 10.1899C20.2681 10.19 20.3085 10.1819 20.3461 10.1661C20.3837 10.1504 20.4178 10.1274 20.4465 10.0984C20.4751 10.0694 20.4977 10.0349 20.5129 9.9971C20.5281 9.95928 20.5357 9.9188 20.5351 9.87803L20.538 5.57522L26.3838 4.07967Z" fill="black"/>
<path fill-rule="evenodd" clip-rule="evenodd" d="M44.2379 0C44.2354 7.04778e-05 44.2328 0.000184607 44.2302 0.000319228C44.1925 0.000211815 44.155 0.00703842 44.1198 0.0204869L31.2341 3.38571C31.1588 3.40426 31.0933 3.45055 31.0507 3.51533C31.008 3.58011 30.9914 3.65861 31.0042 3.73509V19.0668C31.0042 19.1303 31.0238 19.1921 31.0603 19.244C31.0968 19.2959 31.1485 19.3352 31.2082 19.3566L44.1299 23.9807C44.1702 23.9956 44.2131 24.002 44.2559 23.9994C44.2987 23.9968 44.3406 23.9853 44.3787 23.9656L44.4572 23.937H44.4587L57.2559 19.357C57.3156 19.3356 57.3672 19.2964 57.4038 19.2445C57.4403 19.1927 57.4599 19.1308 57.4599 19.0674L57.463 3.70728C57.468 3.63743 57.4491 3.56793 57.4094 3.51028C57.4041 3.50266 57.3985 3.495 57.3925 3.48788C57.391 3.48607 57.3895 3.48429 57.3879 3.48251C57.3833 3.47722 57.3785 3.47207 57.3735 3.46711C57.3705 3.46411 57.3674 3.46117 57.3643 3.45829C57.3605 3.45472 57.3565 3.45125 57.3525 3.44788C57.3474 3.44364 57.3421 3.43958 57.3367 3.43568C57.3347 3.43424 57.3328 3.43283 57.3308 3.43143C57.3235 3.4264 57.316 3.42169 57.3083 3.41731C57.3079 3.41711 57.3075 3.4169 57.3071 3.41669C57.3068 3.41659 57.3065 3.41649 57.3062 3.41639C57.2786 3.40082 57.2487 3.38958 57.2177 3.38312L44.3475 0.0212005C44.3125 0.00772266 44.2754 0.000749005 44.2379 0.000619677V0ZM44.2336 0.626775L55.9247 3.68068L50.6973 5.01815L39.7385 1.80069L44.2336 0.626775ZM38.5854 2.10181C38.5951 2.10577 38.6051 2.10923 38.6151 2.11218L49.5301 5.31675L44.2336 6.67189L32.5411 3.68028L38.5854 2.10181ZM31.6195 4.07967L43.9259 7.22829V23.2541L31.6195 18.8503V4.07967ZM56.8476 4.07967L56.8445 18.8503L44.5412 23.2535V7.22829L50.3864 5.73278L50.3836 9.87773C50.383 9.9185 50.3905 9.95898 50.4057 9.99682C50.4209 10.0347 50.4435 10.0691 50.4721 10.0981C50.5007 10.1272 50.5348 10.1503 50.5724 10.166C50.61 10.1818 50.6504 10.1899 50.6911 10.1899C50.7319 10.19 50.7723 10.1819 50.8099 10.1661C50.8475 10.1504 50.8816 10.1274 50.9103 10.0984C50.9389 10.0694 50.9615 10.0349 50.9767 9.9971C50.9919 9.95928 50.9995 9.9188 50.9989 9.87803L51.0018 5.57522L56.8476 4.07967Z" fill="black"/>
</svg>
