<svg width="28" height="24" viewBox="0 0 28 24" fill="none" xmlns="http://www.w3.org/2000/svg">
<path fill-rule="evenodd" clip-rule="evenodd" d="M14.0061 0C14.0035 7.04778e-05 14.0009 0.000184607 13.9984 0.000319228C13.9606 0.000211815 13.9232 0.00703842 13.8879 0.0204869L1.00221 3.38571C0.926913 3.40426 0.861401 3.45055 0.818778 3.51533C0.776154 3.58011 0.759563 3.65861 0.772322 3.73509V19.0668C0.772323 19.1303 0.791924 19.1921 0.828444 19.244C0.864963 19.2959 0.916616 19.3352 0.976332 19.3566L13.8981 23.9807C13.9383 23.9956 13.9812 24.002 14.024 23.9994C14.0669 23.9968 14.1087 23.9853 14.1468 23.9656L14.2254 23.937H14.2268L27.024 19.357C27.0837 19.3356 27.1354 19.2964 27.1719 19.2445C27.2084 19.1927 27.228 19.1308 27.228 19.0674L27.2311 3.70728C27.2362 3.63743 27.2173 3.56793 27.1775 3.51028C27.1722 3.50266 27.1666 3.495 27.1607 3.48788C27.1591 3.48607 27.1576 3.48429 27.156 3.48251C27.1514 3.47722 27.1466 3.47207 27.1416 3.46711C27.1386 3.46411 27.1355 3.46117 27.1324 3.45829C27.1286 3.45472 27.1247 3.45125 27.1207 3.44788C27.1155 3.44364 27.1102 3.43958 27.1048 3.43568C27.1029 3.43424 27.1009 3.43283 27.0989 3.43143C27.0916 3.4264 27.0841 3.42169 27.0764 3.41731C27.076 3.41711 27.0756 3.4169 27.0752 3.41669C27.0749 3.41659 27.0746 3.41649 27.0743 3.41639C27.0467 3.40082 27.0169 3.38958 26.9858 3.38312L14.1156 0.0212005C14.0807 0.00772266 14.0435 0.000749005 14.0061 0.000619677V0ZM14.0017 0.626775L25.6928 3.68068L20.4654 5.01815L9.50661 1.80069L14.0017 0.626775ZM8.35356 2.10181C8.36328 2.10577 8.37319 2.10923 8.38325 2.11218L19.2982 5.31675L14.0017 6.67189L2.30918 3.68028L8.35356 2.10181ZM1.38764 4.07967L13.6941 7.22829V23.2541L1.38764 18.8503V4.07967ZM26.6157 4.07967L26.6126 18.8503L14.3093 23.2535V7.22829L20.1546 5.73278L20.1518 9.87773C20.1512 9.9185 20.1587 9.95898 20.1739 9.99682C20.189 10.0347 20.2116 10.0691 20.2402 10.0981C20.2688 10.1272 20.3029 10.1503 20.3405 10.166C20.3781 10.1818 20.4185 10.1899 20.4593 10.1899C20.5 10.19 20.5404 10.1819 20.578 10.1661C20.6156 10.1504 20.6498 10.1274 20.6784 10.0984C20.707 10.0694 20.7296 10.0349 20.7449 9.9971C20.7601 9.95928 20.7676 9.9188 20.7671 9.87803L20.77 5.57522L26.6157 4.07967Z" fill="black"/>
</svg>
