<svg width="66" height="46" viewBox="0 0 66 46" fill="none" xmlns="http://www.w3.org/2000/svg">
<path d="M24.1352 11.9479C25.7253 14.3784 26.5012 18.1396 26.5087 23.4495C26.5087 23.7023 26.5056 23.9609 26.5024 24.2212C27.2714 23.6229 28.2372 23.2656 29.2871 23.2656C31.7952 23.2656 33.8279 25.2987 33.8279 27.8068C33.8279 27.8366 33.8264 27.866 33.8257 27.8956H49.6796C49.6788 27.866 49.6773 27.8366 49.6773 27.8068C49.6773 25.2985 51.7102 23.2656 54.2181 23.2656C56.7262 23.2656 58.7589 25.2987 58.7589 27.8068C58.7589 27.8366 58.7574 27.866 58.7566 27.8956H62.6768V18.9916L56.9781 8.66309H19.9378V9.14511C20.3761 9.18922 20.9843 9.31603 21.655 9.65463C22.5969 10.1242 23.4563 10.9179 24.1352 11.9479ZM52.6155 20.8618H49.1428V20.0605H52.6155V20.8618ZM48.3416 10.4447H55.9266L60.2775 18.3306H48.3416V10.4447Z" fill="#606060"/>
<path d="M57.8692 27.807C57.8692 25.7939 56.231 24.1558 54.2184 24.1558C52.2053 24.1558 50.5675 25.7939 50.5675 27.807C50.5675 29.8195 52.2053 31.4575 54.2184 31.4575C56.2308 31.4575 57.8692 29.8195 57.8692 27.807ZM54.2185 29.6766C53.1869 29.6766 52.3479 28.8377 52.3479 27.807C52.3479 26.7755 53.1869 25.9364 54.2185 25.9364C55.249 25.9364 56.0884 26.7755 56.0884 27.807C56.0884 28.8377 55.2492 29.6766 54.2185 29.6766Z" fill="#606060"/>
<path d="M25.7633 28.7464C26.1792 30.3044 27.5991 31.4575 29.287 31.4575C31.2996 31.4575 32.9378 29.8195 32.9378 27.807C32.9378 25.7939 31.2996 24.1558 29.287 24.1558C28.1545 24.1558 27.1412 24.6743 26.4709 25.4861C26.4518 26.0382 26.4269 26.6008 26.3933 27.1756C26.3586 27.7749 26.126 28.3182 25.7633 28.7464ZM29.287 25.9364C30.3178 25.9364 31.1572 26.7755 31.1572 27.807C31.1572 28.8377 30.3178 29.6766 29.287 29.6766C28.2557 29.6766 27.4168 28.8377 27.4168 27.807C27.4169 26.7754 28.2557 25.9364 29.287 25.9364Z" fill="#606060"/>
<path d="M52.2133 31.8815H31.292H27.2821H22.1233V32.8363H65.4054V31.8815H56.223H52.2133Z" fill="#606060"/>
<path d="M4.09742 0.039138C3.27489 -0.149545 2.45504 0.364368 2.26674 1.1867C2.26674 1.18804 2.26444 1.19721 2.26158 1.21039H5.24861C5.12849 0.647583 4.69536 0.176449 4.09742 0.039138Z" fill="#606060"/>
<path d="M15.3701 26.28H16.2552V43.5194C16.2552 44.8238 17.3127 45.8805 18.6163 45.8805C19.9202 45.8805 20.9777 44.8238 20.9777 43.5194V14.8811C21.0907 15.1131 21.2047 15.3793 21.3174 15.69C21.8556 17.1817 22.3082 19.63 22.3066 23.451C22.3066 24.5041 22.2727 25.661 22.1987 26.9312C22.1495 27.7741 22.7925 28.4962 23.6353 28.5459C23.6654 28.5474 23.6956 28.5485 23.7256 28.5485C24.5286 28.5485 25.2022 27.9216 25.2496 27.1095C25.3263 25.7849 25.3619 24.5694 25.3622 23.4512C25.3544 17.6869 24.4335 14.4966 23.1786 12.5787C22.5509 11.6265 21.8172 11.0157 21.1386 10.6775C20.4813 10.346 19.904 10.273 19.5608 10.2698C19.541 10.269 19.5217 10.2667 19.5014 10.2667H17.2613H12.1235C11.9493 10.2667 11.7826 10.2984 11.6273 10.354C11.2731 10.4226 10.4975 10.5549 9.54859 10.6227V10.7587V11.1406H9.16664H1.52345C1.54694 11.1947 1.57081 11.2487 1.59831 11.3037C1.73887 11.5772 1.94932 11.882 2.29919 12.132C4.20378 13.4573 6.48153 13.7083 8.38612 13.7207C9.22565 13.7197 10.0004 13.6619 10.6476 13.5893V43.5194C10.6476 44.8238 11.7051 45.8805 13.0087 45.8805C14.0176 45.8805 14.8762 45.2468 15.2146 44.3565C15.3133 44.0962 15.3701 43.8147 15.3701 43.5194V26.28Z" fill="#606060"/>
<path d="M23.1691 3.19091C23.1691 2.43484 21.3306 1.822 19.0631 1.822C18.9856 1.822 18.9098 1.82449 18.8334 1.82601C18.0573 1.05849 16.9905 0.584106 15.8125 0.584106C13.4395 0.584106 11.5156 2.50799 11.5156 4.88104C11.5156 7.25447 13.4395 9.17797 15.8125 9.17797C17.9897 9.17797 19.7865 7.55926 20.0692 5.45988C19.6821 5.44002 19.2732 5.39839 18.8529 5.33307C16.6528 4.99104 14.957 4.12917 15.0057 3.39086C15.2967 4.05163 16.9996 4.55943 19.0631 4.55943C20.6203 4.55943 21.9747 4.2703 22.6712 3.84462C22.9886 3.65059 23.1691 3.42791 23.1691 3.19091Z" fill="#606060"/>
<path d="M9.16683 1.59192H5.126e-05V10.7591H9.16683V1.59192Z" fill="#606060"/>
</svg>
